<svg class="img-fluid" id="outputsvg" xmlns="http://www.w3.org/2000/svg" width="250" height="260" viewBox="0 0 7240 7600">
    <g id="l7P0UP5HrklRcboRvGTHyuH" fill="#001">
        <g>
            <path id="p8xVJF20H" d="M5146 7433 c-15 -281 -65 -500 -159 -709 -109 -243 -207 -380 -437 -614 -84 -86 -127 -118 -284 -222 -168 -110 -418 -226 -506 -236 -25 -2 -48 -9 -52 -16 -5 -6 -8 -647 -8 -1423 l1 -1413 243 0 c246 0 313 -8 371 -44 11 -7 46 -23 78 -35 72 -26 256 -118 278 -138 10 -8 35 -26 57 -41 72 -48 236 -192 279 -245 68 -83 211 -300 219 -332 4 -16 21 -59 37 -95 67 -147 99 -303 116 -560 9 -127 7 -155 -11 -144 -6 4 -9 1 -6 -7 4 -12 63 -14 331 -17 322 -2 327 -2 327 18 0 11 -6 20 -13 20 -11 0 -14 24 -16 97 -2 115 -11 184 -46 352 -14 67 -23 131 -20 141 3 10 -1 25 -10 34 -9 9 -14 20 -11 24 6 10 -27 106 -42 125 -5 7 -12 26 -15 42 -9 57 -38 150 -56 185 -57 110 -122 225 -143 253 -13 18 -45 67 -72 110 -26 42 -65 92 -87 109 -21 17 -39 36 -39 42 0 6 -30 39 -67 73 -73 67 -71 66 -153 133 -30 25 -68 57 -85 73 -16 15 -52 42 -80 60 -27 17 -58 38 -67 46 -27 23 -177 101 -248 128 -36 14 -70 32 -76 40 -7 7 -46 25 -87 39 -42 14 -80 31 -86 38 -11 13 -17 1709 -6 1737 3 8 37 32 76 54 86 49 277 182 330 229 21 20 43 36 48 36 5 0 47 33 93 73 81 69 140 130 310 318 81 91 197 257 243 349 15 30 37 69 50 85 27 37 95 177 95 197 0 8 11 29 25 48 14 19 25 41 25 50 0 9 4 20 9 25 4 6 23 69 41 140 19 72 37 135 41 140 14 18 50 176 53 233 3 31 14 119 25 195 21 137 26 251 15 295 l-6 22 -408 0 -407 0 -7 -117z"></path><path id="pEcLsQ1S4" d="M3700 1976 c0 -310 3 -571 6 -580 15 -38 170 -8 266 51 208 128 319 329 304 548 -8 124 -34 201 -102 302 -47 70 -70 94 -125 129 -37 24 -71 44 -75 44 -4 0 -17 8 -28 19 -29 26 -122 51 -190 51 l-55 0 -1 -564z"></path>
            <path id="pJ8wgmqjb" d="M50 2122 c-7 -3 -10 -364 -10 -1042 l0 -1039 373 -3 c204 -2 376 0 380 3 5 4 8 202 8 441 -1 239 1 442 5 451 6 16 102 17 1368 17 l1362 0 0 110 c0 97 -1 108 -15 97 -9 -8 -12 -8 -8 -1 4 8 -6 14 -30 19 -20 3 -394 5 -832 4 -681 -2 -796 0 -799 12 -4 20 -612 21 -612 2 0 -10 -39 -14 -157 -15 -231 -3 -264 -2 -274 14 -5 7 -9 211 -9 453 0 379 -2 442 -15 455 -13 13 -71 16 -370 20 -196 3 -360 4 -365 2z"></path>
            <path id="p18UFbRF38" d="M6436 2068 c-8 -30 -8 -766 0 -795 4 -13 13 -23 20 -23 12 0 14 69 14 420 0 351 -2 420 -14 420 -7 0 -16 -10 -20 -22z"></path>
            <path id="p1563qzXCC" d="M6436 774 c-10 -40 -5 -697 5 -716 5 -10 14 -18 19 -18 6 0 10 143 10 380 0 318 -2 380 -14 380 -8 0 -17 -12 -20 -26z"></path>
        </g>
    </g>
    <g id="l1AETtZkZwMMz7UQvYsvRPw" fill="#000">
        <g>
            <path id="p1s5VvThk" d="M1260 7463 c0 -49 5 -117 10 -153 6 -36 17 -127 25 -204 8 -76 19 -153 25 -170 50 -157 97 -319 104 -356 8 -45 33 -104 70 -165 20 -33 41 -78 47 -100 13 -49 35 -93 59 -120 10 -11 37 -56 60 -100 23 -44 49 -89 59 -100 10 -11 31 -42 46 -70 16 -27 51 -72 79 -100 28 -27 77 -81 108 -120 31 -38 98 -109 150 -158 51 -48 109 -102 128 -121 19 -18 71 -59 115 -91 44 -32 94 -69 112 -82 17 -13 36 -23 42 -23 6 0 25 -13 43 -28 18 -16 70 -50 115 -76 44 -26 84 -54 87 -62 3 -9 6 -402 6 -874 0 -951 5 -881 -67 -895 -104 -18 -476 -229 -623 -351 -105 -88 -245 -218 -278 -258 -18 -23 -48 -59 -67 -81 -54 -64 -141 -194 -184 -275 -93 -179 -111 -220 -136 -305 -14 -49 -29 -92 -34 -95 -9 -5 -50 -154 -51 -185 -1 -49 -12 -122 -20 -140 -28 -62 -47 -263 -30 -305 11 -26 10 -35 -5 -64 -36 -67 -39 -66 289 -66 162 0 297 3 299 8 3 4 8 48 11 97 17 228 75 534 109 574 8 9 26 48 41 86 16 39 33 79 39 90 102 186 184 284 372 445 126 108 290 208 389 237 28 8 68 24 89 34 101 52 147 59 403 59 l241 0 0 1425 c0 1202 -3 1423 -14 1413 -10 -8 -17 -8 -25 0 -7 7 -20 12 -31 12 -10 0 -44 12 -75 26 -31 14 -102 45 -158 69 -55 24 -130 61 -165 84 -35 22 -85 52 -111 66 -26 13 -50 30 -53 36 -4 6 -33 28 -64 48 -73 48 -372 356 -385 396 -3 11 -19 36 -36 55 -46 54 -170 261 -170 285 0 7 -16 50 -35 96 -20 45 -46 121 -60 168 -24 88 -76 469 -72 531 l2 35 -412 3 -413 2 0 -87z"></path>
            <path id="pQmWzQwRr" d="M3450 2540 c-98 -14 -161 -44 -282 -131 -73 -52 -159 -187 -189 -295 -18 -66 -21 -94 -15 -174 3 -52 12 -119 21 -149 18 -65 98 -190 157 -247 58 -56 154 -120 205 -138 51 -18 182 -32 184 -20 1 5 3 269 4 587 2 527 1 577 -14 576 -9 -1 -41 -5 -71 -9z"></path>
            <path id="pcvMDCV70" d="M6446 2104 c-3 -8 -6 -214 -6 -457 0 -243 -4 -447 -8 -454 -6 -9 -135 -13 -530 -15 -287 -2 -522 -7 -522 -11 0 -4 -9 -3 -20 3 -13 7 -281 10 -839 10 l-819 -1 2 -102 c1 -56 5 -108 9 -114 7 -10 290 -13 1363 -13 745 0 1355 -1 1356 -2 1 -2 5 -205 8 -453 l5 -449 30 -6 c17 -3 186 -4 377 -2 l348 3 2 1007 c2 554 1 1021 -2 1037 l-6 30 -371 3 c-332 2 -371 1 -377 -14z"></path>
            </g>
        </g>
</svg>